<svg xmlns="http://www.w3.org/2000/svg" width="682.667" height="682.667" preserveAspectRatio="xMidYMid meet" version="1.0" viewBox="0 0 512 512"><metadata>Created by potrace 1.15, written by Peter Selinger 2001-2017</metadata><g fill="#000" stroke="none"><path d="M1810 4809 c-525 -53 -1005 -343 -1308 -790 -93 -138 -193 -363 -237 -536 -64 -252 -72 -555 -21 -799 58 -275 180 -537 349 -749 64 -80 208 -226 282 -285 226 -180 521 -313 810 -366 124 -23 459 -26 575 -6 232 41 473 129 644 235 l40 25 27 -38 c15 -21 164 -159 331 -306 167 -148 441 -391 610 -541 169 -150 325 -284 345 -297 55 -36 155 -60 223 -52 97 11 168 55 272 167 115 123 150 186 156 284 5 88 -15 164 -60 229 -19 26 -293 276 -628 573 -559 494 -655 576 -683 586 -7 2 1 25 21 61 18 32 53 105 77 164 211 517 166 1106 -122 1585 -141 236 -374 469 -610 610 -326 196 -716 284 -1093 246z m445 -723 c175 -45 343 -138 476 -263 438 -414 450 -1114 27 -1542 -211 -213 -470 -321 -773 -321 -495 0 -918 328 -1045 811 -28 107 -38 325 -20 437 72 449 434 821 870 892 41 6 82 13 90 15 8 2 74 2 145 0 97 -3 156 -10 230 -29z" transform="translate(0.000000,512.000000) scale(0.100000,-0.100000)"/></g></svg>